<svg width="18" height="20" viewBox="0 0 18 20" fill="none" xmlns="http://www.w3.org/2000/svg">
<path fill-rule="evenodd" clip-rule="evenodd" d="M1.82331 0.169351C2.341 -0.0802404 2.93458 -0.053431 3.43263 0.24638L13.3411 6.01642L10.5031 8.86765L1.82331 0.169351ZM0.857422 1.72958C0.857422 1.46413 0.916327 1.20623 1.02583 0.974385L9.70374 9.6708L1.02734 18.3884C0.916704 18.1614 0.857422 17.9073 0.857422 17.6407V1.72958ZM10.5043 10.4728L1.83845 19.1798C2.06841 19.2863 2.31309 19.3327 2.5574 19.3327C2.8591 19.3327 3.16004 19.2606 3.43266 19.0967L13.343 13.318L10.5043 10.4728ZM17.1043 8.20761C17.1077 8.2095 17.1115 8.21177 17.1149 8.21403C17.6265 8.52442 17.932 9.0674 17.932 9.66627C17.932 10.2651 17.6265 10.8081 17.1149 11.1189L14.355 12.7278L11.3033 9.66967L14.3531 6.60547L17.1043 8.20761Z" fill="#495567"/>
</svg>
